#
#
#

mtllib myWall2.mtl


#
# meshId0_name
#
g meshId0_name


#
# meshId0_name_m0Material
#
usemtl meshId0_name_m0Material

v -0.322695 -7.221076 -0.143587
v -0.269715 -6.051537 -0.143587
v 0.072163 -6.067024 -0.143587
v 0.019183 -7.236564 -0.143587
v -0.322695 -7.221076 0.166585
v 0.019183 -7.236564 0.166585
v 0.072163 -6.067024 0.166585
v -0.269715 -6.051537 0.166585
v -0.322695 -7.221076 -0.143587
v -0.322695 -7.221076 0.166585
v -0.269715 -6.051537 0.166585
v -0.269715 -6.051537 -0.143587
v -0.269715 -6.051537 -0.143587
v -0.269715 -6.051537 0.166585
v 0.072163 -6.067024 0.166585
v 0.072163 -6.067024 -0.143587
v 0.072163 -6.067024 -0.143587
v 0.072163 -6.067024 0.166585
v 0.019183 -7.236564 0.166585
v 0.019183 -7.236564 -0.143587
v -0.322695 -7.221076 0.166585
v -0.322695 -7.221076 -0.143587
v 0.019183 -7.236564 -0.143587
v 0.019183 -7.236564 0.166585
vn -0.602885 -0.550630 -0.577349
vn -0.550631 0.602885 -0.577349
vn 0.602885 0.550631 -0.577349
vn 0.550631 -0.602884 -0.577349
vn -0.602885 -0.550631 0.577349
vn 0.550631 -0.602885 0.577349
vn 0.602885 0.550630 0.577349
vn -0.550631 0.602884 0.577349
f 1//1 2//2 3//3 4//4
f 5//5 6//6 7//7 8//8
f 9//1 10//5 11//8 12//2
f 13//2 14//8 15//7 16//3
f 17//3 18//7 19//6 20//4
f 21//5 22//1 23//4 24//6


#
# meshId1_name
#
g meshId1_name


#
# meshId1_name_m1Material_001
#
usemtl meshId1_name_m1Material_001

v -0.649713 -5.227277 -0.088925
v 0.112735 -6.115705 -0.088925
v -0.146969 -6.338583 -0.088925
v -0.909417 -5.450155 -0.088925
v -0.649713 -5.227277 0.221247
v -0.909417 -5.450155 0.221247
v -0.146969 -6.338583 0.221247
v 0.112735 -6.115705 0.221247
v -0.649713 -5.227277 -0.088925
v -0.649713 -5.227277 0.221247
v 0.112735 -6.115705 0.221247
v 0.112735 -6.115705 -0.088925
v 0.112735 -6.115705 -0.088925
v 0.112735 -6.115705 0.221247
v -0.146969 -6.338583 0.221247
v -0.146969 -6.338583 -0.088925
v -0.146969 -6.338583 -0.088925
v -0.146969 -6.338583 0.221247
v -0.909417 -5.450155 0.221247
v -0.909417 -5.450155 -0.088925
v -0.649713 -5.227277 0.221247
v -0.649713 -5.227277 -0.088925
v -0.909417 -5.450155 -0.088925
v -0.909417 -5.450155 0.221247
vn 0.062126 0.814128 -0.577349
vn 0.814128 -0.062127 -0.577349
vn -0.062126 -0.814128 -0.577349
vn -0.814128 0.062126 -0.577349
vn 0.062126 0.814128 0.577349
vn -0.814128 0.062127 0.577349
vn -0.062126 -0.814128 0.577349
vn 0.814128 -0.062126 0.577349
f 25//9 26//10 27//11 28//12
f 29//13 30//14 31//15 32//16
f 33//9 34//13 35//16 36//10
f 37//10 38//16 39//15 40//11
f 41//11 42//15 43//14 44//12
f 45//13 46//9 47//12 48//14


#
# meshId2_name
#
g meshId2_name


#
# meshId2_name_m2Material_002
#
usemtl meshId2_name_m2Material_002

v -0.910648 -5.407788 -0.114856
v -0.270796 -4.427371 -0.114856
v 0.015798 -4.614411 -0.114856
v -0.624054 -5.594829 -0.114856
v -0.910648 -5.407788 0.195316
v -0.624054 -5.594829 0.195316
v 0.015798 -4.614411 0.195316
v -0.270795 -4.427371 0.195316
v -0.910648 -5.407788 -0.114856
v -0.910648 -5.407788 0.195316
v -0.270795 -4.427371 0.195316
v -0.270796 -4.427371 -0.114856
v -0.270796 -4.427371 -0.114856
v -0.270795 -4.427371 0.195316
v 0.015798 -4.614411 0.195316
v 0.015798 -4.614411 -0.114856
v 0.015798 -4.614411 -0.114856
v 0.015798 -4.614411 0.195316
v -0.624054 -5.594829 0.195316
v -0.624054 -5.594829 -0.114856
v -0.910648 -5.407788 0.195316
v -0.910648 -5.407788 -0.114856
v -0.624054 -5.594829 -0.114856
v -0.624054 -5.594829 0.195316
vn -0.799035 -0.167949 -0.577349
vn -0.167949 0.799035 -0.577349
vn 0.799035 0.167949 -0.577349
vn 0.167949 -0.799035 -0.577349
vn -0.799035 -0.167949 0.577349
vn 0.167949 -0.799035 0.577349
vn 0.799035 0.167949 0.577349
vn -0.167949 0.799035 0.577349
f 49//17 50//18 51//19 52//20
f 53//21 54//22 55//23 56//24
f 57//17 58//21 59//24 60//18
f 61//18 62//24 63//23 64//19
f 65//19 66//23 67//22 68//20
f 69//21 70//17 71//20 72//22


#
# meshId3_name
#
g meshId3_name


#
# meshId3_name_m3Material_003
#
usemtl meshId3_name_m3Material_003

v -0.234751 -4.800303 -0.058836
v -0.906801 -3.841670 -0.058835
v -0.626575 -3.645217 -0.058835
v 0.045475 -4.603850 -0.058836
v -0.234752 -4.800303 0.251336
v 0.045475 -4.603851 0.251336
v -0.626575 -3.645218 0.251337
v -0.906801 -3.841670 0.251337
v -0.234751 -4.800303 -0.058836
v -0.234752 -4.800303 0.251336
v -0.906801 -3.841670 0.251337
v -0.906801 -3.841670 -0.058835
v -0.906801 -3.841670 -0.058835
v -0.906801 -3.841670 0.251337
v -0.626575 -3.645218 0.251337
v -0.626575 -3.645217 -0.058835
v -0.626575 -3.645217 -0.058835
v -0.626575 -3.645218 0.251337
v 0.045475 -4.603851 0.251336
v 0.045475 -4.603850 -0.058836
v -0.234752 -4.800303 0.251336
v -0.234751 -4.800303 -0.058836
v 0.045475 -4.603850 -0.058836
v 0.045475 -4.603851 0.251336
vn -0.141329 -0.804170 -0.577350
vn -0.804170 0.141329 -0.577349
vn 0.141329 0.804171 -0.577348
vn 0.804170 -0.141328 -0.577349
vn -0.141329 -0.804171 0.577348
vn 0.804170 -0.141329 0.577349
vn 0.141329 0.804170 0.577350
vn -0.804170 0.141328 0.577349
f 73//25 74//26 75//27 76//28
f 77//29 78//30 79//31 80//32
f 81//25 82//29 83//32 84//26
f 85//26 86//32 87//31 88//27
f 89//27 90//31 91//30 92//28
f 93//29 94//25 95//28 96//30


#
# meshId4_name
#
g meshId4_name


#
# meshId4_name_m4Material_004
#
usemtl meshId4_name_m4Material_004

v -0.824821 -3.974957 -0.084457
v -0.771841 -2.805416 -0.084456
v -0.429963 -2.820903 -0.084456
v -0.482943 -3.990443 -0.084457
v -0.824821 -3.974956 0.225715
v -0.482943 -3.990443 0.225715
v -0.429963 -2.820903 0.225716
v -0.771841 -2.805416 0.225716
v -0.824821 -3.974957 -0.084457
v -0.824821 -3.974956 0.225715
v -0.771841 -2.805416 0.225716
v -0.771841 -2.805416 -0.084456
v -0.771841 -2.805416 -0.084456
v -0.771841 -2.805416 0.225716
v -0.429963 -2.820903 0.225716
v -0.429963 -2.820903 -0.084456
v -0.429963 -2.820903 -0.084456
v -0.429963 -2.820903 0.225716
v -0.482943 -3.990443 0.225715
v -0.482943 -3.990443 -0.084457
v -0.824821 -3.974956 0.225715
v -0.824821 -3.974957 -0.084457
v -0.482943 -3.990443 -0.084457
v -0.482943 -3.990443 0.225715
vn -0.602885 -0.550630 -0.577349
vn -0.550631 0.602885 -0.577349
vn 0.602885 0.550631 -0.577349
vn 0.550631 -0.602884 -0.577349
vn -0.602885 -0.550631 0.577349
vn 0.550631 -0.602885 0.577349
vn 0.602885 0.550630 0.577349
vn -0.550631 0.602884 0.577349
f 97//33 98//34 99//35 100//36
f 101//37 102//38 103//39 104//40
f 105//33 106//37 107//40 108//34
f 109//34 110//40 111//39 112//35
f 113//35 114//39 115//38 116//36
f 117//37 118//33 119//36 120//38


#
# meshId5_name
#
g meshId5_name


#
# meshId5_name_m5Material_005
#
usemtl meshId5_name_m5Material_005

v -0.815240 -2.863794 -0.092486
v -0.730096 -1.696156 -0.092486
v -0.388774 -1.721046 -0.092486
v -0.473918 -2.888684 -0.092486
v -0.815240 -2.863794 0.217686
v -0.473918 -2.888684 0.217686
v -0.388774 -1.721046 0.217686
v -0.730096 -1.696156 0.217686
v -0.815240 -2.863794 -0.092486
v -0.815240 -2.863794 0.217686
v -0.730096 -1.696156 0.217686
v -0.730096 -1.696156 -0.092486
v -0.730096 -1.696156 -0.092486
v -0.730096 -1.696156 0.217686
v -0.388774 -1.721046 0.217686
v -0.388774 -1.721046 -0.092486
v -0.388774 -1.721046 -0.092486
v -0.388774 -1.721046 0.217686
v -0.473918 -2.888684 0.217686
v -0.473918 -2.888684 -0.092486
v -0.815240 -2.863794 0.217686
v -0.815240 -2.863794 -0.092486
v -0.473918 -2.888684 -0.092486
v -0.473918 -2.888684 0.217686
vn -0.617809 -0.533831 -0.577349
vn -0.533831 0.617809 -0.577349
vn 0.617809 0.533831 -0.577349
vn 0.533831 -0.617809 -0.577349
vn -0.617809 -0.533831 0.577349
vn 0.533831 -0.617809 0.577349
vn 0.617809 0.533831 0.577349
vn -0.533831 0.617809 0.577349
f 121//41 122//42 123//43 124//44
f 125//45 126//46 127//47 128//48
f 129//41 130//45 131//48 132//42
f 133//42 134//48 135//47 136//43
f 137//43 138//47 139//46 140//44
f 141//45 142//41 143//44 144//46
